<svg xmlns="http://www.w3.org/2000/svg" xmlns:xlink="http://www.w3.org/1999/xlink" width="185px" height="59px" viewBox="0 0 185 59"><title>ccb-logo</title><desc>Created with Sketch.</desc><defs></defs><g id="Page-1" stroke="none" stroke-width="1" fill="none" fill-rule="evenodd"><g id="ccb-logo"><g id="Group"><path d="M90.6576763,14.6350649 C89.3526971,15.2480519 88.0860996,15.5928571 86.8195021,15.5928571 C84.6317427,15.5928571 82.8661826,14.9032468 81.5228216,13.524026 C80.1410788,12.1448052 79.4885892,10.3824675 79.4885892,8.23701299 C79.4885892,6.09155844 80.1410788,4.32922078 81.4076763,2.91168831 C82.6742739,1.53246753 84.3630705,0.804545455 86.5124481,0.804545455 C87.8174274,0.804545455 89.1991701,1.11103896 90.6576763,1.76233766 L89.813278,3.90779221 C88.5850622,3.37142857 87.4719917,3.10324675 86.5124481,3.10324675 C85.2074689,3.10324675 84.1711618,3.6012987 83.403527,4.5974026 C82.7126556,5.47857143 82.3672199,6.62792208 82.3672199,7.96883117 C82.3672199,9.57792208 82.7894191,10.8422078 83.5954357,11.8 C84.4782158,12.7961039 85.6680498,13.2941558 87.2417012,13.2941558 C88.2012448,13.2941558 89.1224066,13.0642857 90.0819502,12.6045455 L90.6576763,14.6350649 Z" id="Shape" fill="#231F20" fill-rule="nonzero"></path><path d="M100.445021,14.75 C98.6410788,15.2863636 97.1441909,15.5545455 95.9543568,15.5545455 C94.7261411,15.5545455 93.689834,15.3246753 92.8454357,14.9032468 C91.7707469,14.3285714 91.2334025,13.4857143 91.2334025,12.3746753 C91.2334025,11.1487013 91.8091286,10.2675325 92.9221992,9.69285714 C93.3827801,9.46298701 94.4190871,9.19480519 96.0695021,8.81168831 C97.1825726,8.54350649 97.7582988,8.1987013 97.7582988,7.73896104 C97.7582988,7.08766234 97.1825726,6.78116883 95.9927386,6.78116883 C95.033195,6.78116883 94.0736515,7.01103896 93.0757261,7.43246753 L92.2313278,5.51688312 C93.5363071,4.9038961 94.9180498,4.5974026 96.376556,4.5974026 C97.56639,4.5974026 98.4875519,4.86558442 99.1784232,5.40194805 C99.9076763,5.97662338 100.291494,6.85779221 100.291494,8.00714286 L100.291494,13.4090909 C100.329876,13.7155844 100.368257,14.137013 100.445021,14.75 M97.8350622,13.1792208 C97.7966805,12.9876623 97.7966805,12.8727273 97.7966805,12.7961039 L97.7966805,10.2292208 C97.56639,10.4590909 97.1441909,10.6123377 96.4533195,10.7655844 C95.6089212,10.9571429 95.0715768,11.1103896 94.8412863,11.187013 C94.3039419,11.4168831 94.0736515,11.7616883 94.0736515,12.1831169 C94.0736515,13.025974 94.7261411,13.4474026 96.0311203,13.4474026 C96.6068465,13.4857143 97.2209544,13.3707792 97.8350622,13.1792208 M98.1421162,1.45584416 C98.1421162,1.76233766 98.026971,1.99220779 97.7582988,2.18376623 L95.186722,3.90779221 L94.2655602,2.87337662 L96.2997925,0.612987013 C96.4917012,0.421428571 96.7219917,0.306493506 96.9906639,0.306493506 C97.2977178,0.306493506 97.5280083,0.421428571 97.7582988,0.651298701 C98.026971,0.881168831 98.1421162,1.14935065 98.1421162,1.45584416" id="Shape" fill="#231F20" fill-rule="nonzero"></path><path d="M116.910788,15.362987 L114.377593,15.362987 L114.377593,8.77337662 C114.377593,7.47077922 113.763485,6.85779221 112.53527,6.85779221 C111.959544,6.85779221 111.345436,7.04935065 110.654564,7.39415584 C110.692946,7.66233766 110.731328,8.08376623 110.731328,8.62012987 L110.731328,15.362987 L108.236515,15.362987 L108.236515,8.77337662 C108.236515,7.50909091 107.622407,6.85779221 106.432573,6.85779221 C105.818465,6.85779221 105.204357,7.01103896 104.551867,7.31753247 C104.590249,7.5474026 104.590249,7.70064935 104.590249,7.77727273 L104.590249,15.4012987 L102.095436,15.4012987 L102.095436,7.08766234 C102.095436,6.81948052 102.057054,6.35974026 101.98029,5.70844156 C103.822614,5.01883117 105.396266,4.67402597 106.701245,4.67402597 C108.159751,4.67402597 109.196058,4.98051948 109.848548,5.63181818 C111,4.98051948 112.189834,4.67402597 113.341286,4.67402597 C114.492739,4.67402597 115.375519,4.98051948 115.989627,5.63181818 C116.603734,6.28311688 116.94917,7.16428571 116.94917,8.31363636 L116.94917,15.362987 L116.910788,15.362987 Z" id="Shape" fill="#231F20" fill-rule="nonzero"></path><path d="M127.158714,14.75 C125.354772,15.2863636 123.857884,15.5545455 122.66805,15.5545455 C121.439834,15.5545455 120.403527,15.3246753 119.559129,14.9032468 C118.48444,14.3285714 117.947095,13.4857143 117.947095,12.3746753 C117.947095,11.1487013 118.522822,10.2675325 119.635892,9.69285714 C120.096473,9.46298701 121.13278,9.19480519 122.783195,8.81168831 C123.896266,8.54350649 124.471992,8.1987013 124.471992,7.73896104 C124.471992,7.08766234 123.896266,6.78116883 122.706432,6.78116883 C121.746888,6.78116883 120.748963,7.01103896 119.789419,7.39415584 L118.945021,5.47857143 C120.25,4.86558442 121.631743,4.55909091 123.090249,4.55909091 C124.280083,4.55909091 125.201245,4.82727273 125.892116,5.36363636 C126.621369,5.93831169 127.005187,6.81948052 127.005187,7.96883117 L127.005187,13.3707792 C127.005187,13.7155844 127.043568,14.137013 127.158714,14.75 M124.548755,13.1792208 C124.510373,12.9876623 124.510373,12.8727273 124.510373,12.7961039 L124.510373,10.2292208 C124.318465,10.4590909 123.857884,10.6123377 123.167012,10.7655844 C122.322614,10.9571429 121.78527,11.1103896 121.554979,11.187013 C121.017635,11.4168831 120.787344,11.7616883 120.787344,12.1831169 C120.787344,13.025974 121.439834,13.4474026 122.744813,13.4474026 C123.320539,13.4857143 123.896266,13.3707792 124.548755,13.1792208" id="Shape" fill="#231F20" fill-rule="nonzero"></path><path d="M135.372407,4.86558442 L134.604772,7.01103896 C134.144191,6.85779221 133.68361,6.78116883 133.223029,6.78116883 C132.570539,6.78116883 131.91805,6.85779221 131.342324,7.04935065 C131.342324,7.16428571 131.380705,7.2025974 131.380705,7.24090909 L131.380705,15.2863636 L128.84751,15.2863636 L128.84751,7.27922078 C128.84751,6.97272727 128.770747,6.43636364 128.655602,5.70844156 C130.497925,4.94220779 132.109959,4.55909091 133.45332,4.55909091 C134.144191,4.63571429 134.79668,4.71233766 135.372407,4.86558442" id="Shape" fill="#231F20" fill-rule="nonzero"></path><path d="M143.701245,14.75 C141.897303,15.2863636 140.400415,15.5545455 139.210581,15.5545455 C137.982365,15.5545455 136.946058,15.3246753 136.10166,14.9032468 C135.026971,14.3285714 134.528008,13.4857143 134.528008,12.3746753 C134.528008,11.1487013 135.065353,10.2675325 136.216805,9.69285714 C136.677386,9.46298701 137.713693,9.19480519 139.364108,8.81168831 C140.477178,8.54350649 141.052905,8.1987013 141.052905,7.73896104 C141.052905,7.08766234 140.477178,6.78116883 139.287344,6.78116883 C138.327801,6.78116883 137.329876,7.01103896 136.370332,7.39415584 L135.525934,5.47857143 C136.830913,4.86558442 138.212656,4.55909091 139.671162,4.55909091 C140.860996,4.55909091 141.782158,4.82727273 142.473029,5.36363636 C143.202282,5.93831169 143.5861,6.81948052 143.5861,7.96883117 L143.5861,13.3707792 C143.547718,13.7155844 143.624481,14.137013 143.701245,14.75 M141.091286,13.1792208 C141.052905,12.9876623 141.052905,12.8727273 141.052905,12.7961039 L141.052905,10.2292208 C140.860996,10.4590909 140.400415,10.6123377 139.709544,10.7655844 C138.865145,10.9571429 138.327801,11.1103896 138.09751,11.187013 C137.598548,11.4168831 137.329876,11.7616883 137.329876,12.1831169 C137.329876,13.025974 137.982365,13.4474026 139.287344,13.4474026 C139.863071,13.4857143 140.477178,13.3707792 141.091286,13.1792208" id="Shape" fill="#231F20" fill-rule="nonzero"></path><path d="M89.1991701,33.9824675 C87.7790456,34.4805195 86.3973029,34.7487013 85.1307054,34.7487013 C83.4802905,34.7487013 82.0985477,34.2123377 81.0238589,33.1779221 C79.9491701,32.1051948 79.4118257,30.7642857 79.4118257,29.1168831 C79.4118257,27.661039 79.8340249,26.4350649 80.6400415,25.438961 C81.5228216,24.3662338 82.7126556,23.8298701 84.2479253,23.8298701 C85.0923237,23.8298701 85.8983402,24.0214286 86.5892116,24.4045455 L86.5892116,19.1558442 L89.1224066,19.1558442 L89.1224066,32.5649351 C89.0456432,32.8714286 89.0840249,33.3311688 89.1991701,33.9824675 M86.5892116,32.4116883 C86.5508299,32.2201299 86.5508299,32.0668831 86.5508299,31.9902597 L86.5508299,26.5116883 C86.1286307,26.1668831 85.5529046,26.0136364 84.8236515,26.0136364 C83.9408714,26.0136364 83.25,26.3201299 82.7894191,26.9714286 C82.4056017,27.5461039 82.2136929,28.3123377 82.2136929,29.2701299 C82.2136929,30.2662338 82.4439834,31.0707792 82.9429461,31.6454545 C83.4419087,32.2967532 84.2095436,32.6032468 85.1690871,32.6032468 C85.7448133,32.5649351 86.2437759,32.5266234 86.5892116,32.4116883" id="Shape" fill="#231F20" fill-rule="nonzero"></path><path d="M99.8692946,28.8103896 C99.8692946,29.0019481 99.8309129,29.4616883 99.7157676,30.1896104 L92.9221992,30.1896104 C93.0757261,31.7603896 94.0352697,32.5649351 95.7240664,32.5649351 C96.68361,32.5649351 97.56639,32.3733766 98.3724066,32.0285714 L99.1784232,33.9824675 C97.9502075,34.5188312 96.7603734,34.7487013 95.5705394,34.7487013 C93.9585062,34.7487013 92.653527,34.2506494 91.6556017,33.2545455 C90.6576763,32.2584416 90.1587137,30.9175325 90.1587137,29.3084416 C90.1587137,27.6993506 90.5809129,26.4350649 91.3869295,25.438961 C92.2697095,24.3662338 93.4979253,23.8298701 95.033195,23.8298701 C96.530083,23.8298701 97.6815353,24.2896104 98.5643154,25.2474026 C99.4470954,26.1285714 99.8692946,27.3162338 99.8692946,28.8103896 L99.8692946,28.8103896 Z M97.2593361,28.2357143 C97.2593361,27.5461039 97.0674274,27.0097403 96.7219917,26.55 C96.3381743,26.0902597 95.8008299,25.8987013 95.1099585,25.8987013 C94.4574689,25.8987013 93.9585062,26.1285714 93.5363071,26.5883117 C93.1524896,27.0480519 92.9221992,27.5844156 92.9221992,28.274026 L97.2593361,28.274026 L97.2593361,28.2357143 Z" id="Shape" fill="#231F20" fill-rule="nonzero"></path><path d="M115.989627,33.7909091 C114.684647,34.4038961 113.41805,34.7487013 112.151452,34.7487013 C109.963693,34.7487013 108.198133,34.0590909 106.854772,32.6798701 C105.473029,31.3006494 104.820539,29.5383117 104.820539,27.3928571 C104.820539,25.2474026 105.434647,23.4850649 106.701245,22.0675325 C107.967842,20.6883117 109.656639,19.9987013 111.806017,19.9987013 C113.110996,19.9987013 114.492739,20.3051948 115.951245,20.9564935 L115.106846,23.1019481 C113.840249,22.5655844 112.76556,22.2974026 111.767635,22.2974026 C110.462656,22.2974026 109.426349,22.7954545 108.658714,23.7915584 C107.967842,24.6727273 107.622407,25.8220779 107.622407,27.162987 C107.622407,28.7720779 108.044606,30.0363636 108.850622,30.9941558 C109.733402,31.9902597 110.923237,32.4883117 112.496888,32.4883117 C113.456432,32.4883117 114.377593,32.2584416 115.337137,31.7987013 L115.989627,33.7909091 Z" id="Shape" fill="#231F20" fill-rule="nonzero"></path><path d="M126.429461,29.3084416 C126.429461,30.9175325 125.930498,32.2201299 124.970954,33.2545455 C124.011411,34.288961 122.744813,34.787013 121.13278,34.787013 C119.559129,34.787013 118.254149,34.2506494 117.294606,33.2162338 C116.335062,32.2201299 115.874481,30.9175325 115.874481,29.3084416 C115.874481,27.6993506 116.373444,26.3967532 117.332988,25.3623377 C118.292531,24.3279221 119.559129,23.8298701 121.171162,23.8298701 C122.744813,23.8298701 124.011411,24.3279221 125.009336,25.3623377 C125.930498,26.3967532 126.429461,27.6993506 126.429461,29.3084416 M123.627593,29.3084416 C123.627593,28.388961 123.435685,27.661039 123.090249,27.0480519 C122.66805,26.3201299 122.01556,25.9753247 121.171162,25.9753247 C120.326763,25.9753247 119.674274,26.3201299 119.252075,27.0097403 C118.906639,27.5844156 118.71473,28.3506494 118.71473,29.2701299 C118.71473,30.1896104 118.906639,30.9558442 119.252075,31.5305195 C119.674274,32.2201299 120.326763,32.5649351 121.171162,32.5649351 C122.01556,32.5649351 122.66805,32.2201299 123.090249,31.5305195 C123.435685,30.9941558 123.627593,30.2279221 123.627593,29.3084416" id="Shape" fill="#231F20" fill-rule="nonzero"></path><path d="M142.396266,34.5188312 L139.863071,34.5188312 L139.863071,27.9292208 C139.863071,26.6266234 139.248963,26.0136364 138.020747,26.0136364 C137.483402,26.0136364 136.830913,26.2051948 136.140041,26.55 C136.178423,26.8181818 136.216805,27.2396104 136.216805,27.775974 L136.216805,34.5188312 L133.68361,34.5188312 L133.68361,27.9292208 C133.68361,26.6649351 133.069502,26.0136364 131.879668,26.0136364 C131.26556,26.0136364 130.651452,26.1668831 129.998963,26.4733766 C130.037344,26.6649351 130.037344,26.8564935 130.037344,26.9331169 L130.037344,34.5571429 L127.504149,34.5571429 L127.504149,26.2435065 C127.504149,25.9753247 127.465768,25.5155844 127.389004,24.8642857 C129.231328,24.1746753 130.804979,23.8298701 132.109959,23.8298701 C133.568465,23.8298701 134.604772,24.1363636 135.257261,24.7876623 C136.408714,24.1363636 137.598548,23.8298701 138.75,23.8298701 C139.901452,23.8298701 140.784232,24.1363636 141.39834,24.7876623 C142.012448,25.438961 142.357884,26.3201299 142.357884,27.4694805 L142.357884,34.5188312 L142.396266,34.5188312 Z" id="Shape" fill="#231F20" fill-rule="nonzero"></path><path d="M153.06639,28.8103896 C153.06639,29.0019481 153.028008,29.4616883 152.912863,30.1896104 L146.119295,30.1896104 C146.272822,31.7603896 147.232365,32.5649351 148.921162,32.5649351 C149.880705,32.5649351 150.763485,32.3733766 151.607884,32.0285714 L152.4139,33.9824675 C151.185685,34.5188312 149.995851,34.7487013 148.806017,34.7487013 C147.193983,34.7487013 145.889004,34.2506494 144.891079,33.2545455 C143.893154,32.2584416 143.394191,30.9175325 143.394191,29.3084416 C143.394191,27.6993506 143.81639,26.4350649 144.622407,25.438961 C145.505187,24.3662338 146.733402,23.8298701 148.268672,23.8298701 C149.76556,23.8298701 150.917012,24.2896104 151.799793,25.2474026 C152.682573,26.1285714 153.06639,27.3162338 153.06639,28.8103896 L153.06639,28.8103896 Z M150.456432,28.2357143 C150.456432,27.5461039 150.264523,27.0097403 149.919087,26.55 C149.53527,26.0902597 148.997925,25.8987013 148.307054,25.8987013 C147.654564,25.8987013 147.155602,26.1285714 146.771784,26.5883117 C146.387967,27.0480519 146.157676,27.5844156 146.119295,28.274026 L150.456432,28.274026 L150.456432,28.2357143 Z" id="Shape" fill="#231F20" fill-rule="nonzero"></path><path d="M160.896266,24.0597403 L160.128631,26.2051948 C159.66805,26.0519481 159.207469,25.9753247 158.746888,25.9753247 C158.056017,25.9753247 157.441909,26.0519481 156.866183,26.2435065 C156.866183,26.3584416 156.904564,26.3967532 156.904564,26.4350649 L156.904564,34.4805195 L154.371369,34.4805195 L154.371369,26.4733766 C154.371369,26.1668831 154.294606,25.6305195 154.179461,24.9025974 C156.021784,24.1363636 157.633817,23.7532468 158.977178,23.7532468 C159.66805,23.8298701 160.282158,23.9064935 160.896266,24.0597403" id="Shape" fill="#231F20" fill-rule="nonzero"></path><path d="M168.994813,34.0207792 C167.920124,34.5188312 166.807054,34.7487013 165.770747,34.7487013 C164.120332,34.7487013 162.776971,34.2506494 161.702282,33.2545455 C160.627593,32.2584416 160.090249,30.9175325 160.090249,29.3084416 C160.090249,27.6993506 160.589212,26.3584416 161.625519,25.3623377 C162.623444,24.3662338 163.966805,23.8298701 165.578838,23.8298701 C166.768672,23.8298701 167.920124,24.0597403 169.033195,24.5577922 L168.26556,26.5883117 C167.267635,26.2051948 166.423237,26.0136364 165.693983,26.0136364 C164.811203,26.0136364 164.08195,26.3201299 163.544606,26.9714286 C163.007261,27.5844156 162.738589,28.3506494 162.738589,29.2701299 C162.738589,30.2279221 163.045643,31.0324675 163.621369,31.6454545 C164.197095,32.2967532 164.96473,32.6032468 165.924274,32.6032468 C166.538382,32.6032468 167.344398,32.4116883 168.26556,32.0668831 L168.994813,34.0207792 Z" id="Shape" fill="#231F20" fill-rule="nonzero"></path><path d="M173.216805,20.4584416 C173.216805,20.8798701 173.063278,21.2246753 172.756224,21.5311688 C172.44917,21.7993506 172.103734,21.9525974 171.643154,21.9525974 C171.220954,21.9525974 170.837137,21.7993506 170.568465,21.5311688 C170.261411,21.262987 170.146266,20.9181818 170.146266,20.4584416 C170.146266,20.037013 170.299793,19.6922078 170.568465,19.3857143 C170.837137,19.0792208 171.220954,18.9642857 171.643154,18.9642857 C172.065353,18.9642857 172.410788,19.1175325 172.717842,19.3857143 C173.063278,19.6922078 173.216805,20.037013 173.216805,20.4584416 L173.216805,20.4584416 Z M172.948133,34.5188312 L170.414938,34.5188312 L170.414938,24.0214286 L172.948133,24.0214286 L172.948133,34.5188312 Z" id="Shape" fill="#231F20" fill-rule="nonzero"></path><path d="M184.846473,29.3084416 C184.846473,30.9175325 184.34751,32.2201299 183.387967,33.2545455 C182.428423,34.288961 181.161826,34.787013 179.549793,34.787013 C177.976141,34.787013 176.671162,34.2506494 175.711618,33.2162338 C174.752075,32.2201299 174.291494,30.9175325 174.291494,29.3084416 C174.291494,27.6993506 174.790456,26.3967532 175.75,25.3623377 C176.709544,24.3279221 177.976141,23.8298701 179.588174,23.8298701 C181.161826,23.8298701 182.428423,24.3279221 183.426349,25.3623377 C184.34751,26.3967532 184.846473,27.6993506 184.846473,29.3084416 M182.044606,29.3084416 C182.044606,28.388961 181.852697,27.661039 181.507261,27.0480519 C181.085062,26.3201299 180.432573,25.9753247 179.588174,25.9753247 C178.743776,25.9753247 178.091286,26.3201299 177.669087,27.0097403 C177.28527,27.5844156 177.131743,28.3506494 177.131743,29.2701299 C177.131743,30.1896104 177.323651,30.9558442 177.669087,31.5305195 C178.091286,32.2201299 178.743776,32.5649351 179.588174,32.5649351 C180.432573,32.5649351 181.085062,32.2201299 181.507261,31.5305195 C181.852697,30.9941558 182.044606,30.2279221 182.044606,29.3084416" id="Shape" fill="#231F20" fill-rule="nonzero"></path><path d="M89.1991701,53.1766234 C87.7790456,53.712987 86.3973029,53.9428571 85.1307054,53.9428571 C83.4802905,53.9428571 82.0985477,53.4064935 81.0238589,52.3720779 C79.9491701,51.3376623 79.4118257,49.9584416 79.4118257,48.311039 C79.4118257,46.8551948 79.8340249,45.6292208 80.6400415,44.6331169 C81.5228216,43.5603896 82.7126556,43.024026 84.2479253,43.024026 C85.0923237,43.024026 85.8983402,43.2155844 86.5892116,43.5987013 L86.5892116,38.3116883 L89.1224066,38.3116883 L89.1224066,51.7590909 C89.0456432,52.0272727 89.0840249,52.5253247 89.1991701,53.1766234 M86.5892116,51.5675325 C86.5508299,51.375974 86.5508299,51.2227273 86.5508299,51.1461039 L86.5508299,45.6675325 C86.1286307,45.3227273 85.5529046,45.1694805 84.8236515,45.1694805 C83.9408714,45.1694805 83.25,45.475974 82.7894191,46.1272727 C82.4056017,46.7019481 82.2136929,47.4681818 82.2136929,48.425974 C82.2136929,49.4220779 82.4439834,50.2266234 82.9429461,50.8012987 C83.4419087,51.4525974 84.2095436,51.7590909 85.1690871,51.7590909 C85.7448133,51.7590909 86.2437759,51.6824675 86.5892116,51.5675325" id="Shape" fill="#231F20" fill-rule="nonzero"></path><path d="M99.8692946,48.0045455 C99.8692946,48.1961039 99.8309129,48.6558442 99.7157676,49.3837662 L92.9221992,49.3837662 C93.0757261,50.9545455 94.0352697,51.7590909 95.7240664,51.7590909 C96.68361,51.7590909 97.56639,51.5675325 98.3724066,51.2227273 L99.1784232,53.1766234 C97.9502075,53.712987 96.7603734,53.9428571 95.5705394,53.9428571 C93.9585062,53.9428571 92.653527,53.4448052 91.6556017,52.4487013 C90.6576763,51.4525974 90.1587137,50.15 90.1587137,48.5025974 C90.1587137,46.8935065 90.5809129,45.6292208 91.3869295,44.6331169 C92.2697095,43.5603896 93.4979253,43.024026 95.033195,43.024026 C96.530083,43.024026 97.6815353,43.4837662 98.5643154,44.4415584 C99.4470954,45.3227273 99.8692946,46.5103896 99.8692946,48.0045455 L99.8692946,48.0045455 Z M97.2593361,47.4298701 C97.2593361,46.7402597 97.0674274,46.2038961 96.7219917,45.7441558 C96.3381743,45.2844156 95.8008299,45.0928571 95.1099585,45.0928571 C94.4574689,45.0928571 93.9585062,45.3227273 93.5363071,45.7824675 C93.1524896,46.2422078 92.9221992,46.7785714 92.9221992,47.4298701 L97.2593361,47.4298701 L97.2593361,47.4298701 Z" id="Shape" fill="#231F20" fill-rule="nonzero"></path><path d="M115.145228,49.7285714 C115.145228,52.5253247 113.110996,53.9045455 109.042531,53.9045455 C107.929461,53.9045455 106.739627,53.7896104 105.434647,53.5214286 L105.434647,39.4993506 C106.893154,39.2311688 108.121369,39.0779221 109.080913,39.0779221 C112.76556,39.0779221 114.607884,40.4188312 114.607884,43.138961 C114.607884,43.8285714 114.415975,44.4415584 113.993776,44.9779221 C113.609959,45.5525974 113.072614,45.9357143 112.458506,46.2038961 L112.458506,46.2422078 C113.302905,46.4337662 113.917012,46.8551948 114.415975,47.4681818 C114.914938,48.1577922 115.145228,48.8857143 115.145228,49.7285714 M111.921162,43.2538961 C111.921162,42.4876623 111.65249,41.9896104 111.076763,41.6831169 C110.654564,41.4915584 110.040456,41.3766234 109.196058,41.3766234 C108.850622,41.3766234 108.466805,41.4149351 108.044606,41.4915584 L108.044606,45.1694805 L109.311203,45.1694805 C111.076763,45.2077922 111.921162,44.5564935 111.921162,43.2538961 M112.420124,49.5753247 C112.420124,48.1961039 111.422199,47.4681818 109.387967,47.4681818 L108.044606,47.4681818 L108.044606,51.5292208 C108.466805,51.6058442 108.850622,51.6441558 109.23444,51.6441558 C111.383817,51.6058442 112.420124,50.9162338 112.420124,49.5753247" id="Shape" fill="#231F20" fill-rule="nonzero"></path><path d="M126.237552,48.4642857 C126.237552,50.0733766 125.738589,51.375974 124.779046,52.4103896 C123.819502,53.4448052 122.552905,53.9428571 120.940871,53.9428571 C119.36722,53.9428571 118.062241,53.4064935 117.102697,52.3720779 C116.143154,51.375974 115.682573,50.0733766 115.682573,48.4642857 C115.682573,46.8551948 116.181535,45.5525974 117.141079,44.5181818 C118.100622,43.4837662 119.36722,42.9857143 120.979253,42.9857143 C122.552905,42.9857143 123.819502,43.4837662 124.817427,44.5181818 C125.776971,45.5525974 126.237552,46.8935065 126.237552,48.4642857 M123.474066,48.5025974 C123.474066,47.5831169 123.282158,46.8551948 122.936722,46.2422078 C122.514523,45.5142857 121.862033,45.1694805 121.017635,45.1694805 C120.173237,45.1694805 119.520747,45.5142857 119.098548,46.2038961 C118.71473,46.7785714 118.561203,47.5448052 118.561203,48.4642857 C118.561203,49.3837662 118.753112,50.15 119.098548,50.7246753 C119.520747,51.4142857 120.173237,51.7590909 121.017635,51.7590909 C121.862033,51.7590909 122.514523,51.4142857 122.936722,50.7246753 C123.282158,50.15 123.474066,49.4220779 123.474066,48.5025974" id="Shape" fill="#231F20" fill-rule="nonzero"></path><path d="M136.869295,55.3220779 C136.869295,56.5097403 136.255187,57.4292208 135.065353,58.0422078 C134.105809,58.5019481 132.992739,58.7318182 131.649378,58.7318182 C130.344398,58.7318182 129.26971,58.5402597 128.348548,58.1188312 C127.158714,57.5441558 126.544606,56.7396104 126.544606,55.5902597 C126.544606,54.2493506 127.350622,53.3298701 128.924274,52.8318182 C128.655602,52.4487013 128.502075,52.0655844 128.502075,51.6824675 C128.502075,51.1844156 128.732365,50.7246753 129.231328,50.3032468 C127.887967,49.5753247 127.197095,48.425974 127.197095,46.9318182 C127.197095,45.7058442 127.619295,44.7480519 128.502075,44.0201299 C129.346473,43.3305195 130.344398,42.9857143 131.572614,42.9857143 C131.841286,42.9857143 132.14834,43.024026 132.532158,43.1006494 C132.915975,43.1772727 133.146266,43.2155844 133.223029,43.2155844 L136.792531,43.2155844 L136.792531,45.1311688 C136.216805,45.1694805 135.756224,45.0928571 135.372407,44.9396104 L135.334025,44.9779221 C135.756224,45.6675325 135.948133,46.3188312 135.948133,46.8935065 C135.948133,47.8896104 135.641079,48.6941558 135.065353,49.3837662 C134.489627,50.0733766 133.68361,50.4948052 132.724066,50.7246753 C132.608921,50.762987 132.14834,50.8012987 131.342324,50.8779221 C131.188797,50.8779221 131.03527,50.9545455 130.843361,51.0694805 C130.689834,51.1844156 130.574689,51.2993506 130.574689,51.4525974 C130.574689,51.7974026 131.112033,52.0655844 132.186722,52.2188312 C133.68361,52.4487013 134.681535,52.6785714 135.180498,52.8701299 C136.33195,53.3681818 136.869295,54.1727273 136.869295,55.3220779 M134.297718,55.437013 C134.297718,54.938961 133.721992,54.5941558 132.608921,54.325974 C131.841286,54.211039 131.03527,54.0577922 130.267635,53.9428571 C129.308091,54.2493506 128.809129,54.7857143 128.809129,55.4753247 C128.809129,55.9733766 129.154564,56.3181818 129.883817,56.5480519 C130.38278,56.7012987 130.958506,56.7779221 131.610996,56.7779221 C133.414938,56.7779221 134.297718,56.3564935 134.297718,55.437013 M133.606846,46.9701299 C133.606846,46.3954545 133.414938,45.9357143 133.069502,45.5909091 C132.685685,45.2844156 132.225104,45.0928571 131.649378,45.0928571 C131.073651,45.0928571 130.574689,45.2461039 130.229253,45.5909091 C129.845436,45.8974026 129.653527,46.3571429 129.653527,46.9701299 C129.653527,47.5448052 129.845436,48.0045455 130.229253,48.3493506 C130.613071,48.6941558 131.073651,48.8474026 131.649378,48.8474026 C132.225104,48.8474026 132.724066,48.6941558 133.069502,48.3493506 C133.414938,48.0428571 133.606846,47.5831169 133.606846,46.9701299" id="Shape" fill="#231F20" fill-rule="nonzero"></path><path d="M147.692946,48.4642857 C147.692946,50.0733766 147.193983,51.375974 146.23444,52.4103896 C145.274896,53.4448052 144.008299,53.9428571 142.396266,53.9428571 C140.822614,53.9428571 139.517635,53.4064935 138.558091,52.3720779 C137.598548,51.375974 137.137967,50.0733766 137.137967,48.4642857 C137.137967,46.8551948 137.636929,45.5525974 138.596473,44.5181818 C139.556017,43.4837662 140.822614,42.9857143 142.434647,42.9857143 C144.008299,42.9857143 145.274896,43.4837662 146.272822,44.5181818 C147.193983,45.5525974 147.692946,46.8935065 147.692946,48.4642857 M144.891079,48.5025974 C144.891079,47.5831169 144.69917,46.8551948 144.353734,46.2422078 C143.931535,45.5142857 143.279046,45.1694805 142.434647,45.1694805 C141.590249,45.1694805 140.937759,45.5142857 140.51556,46.2038961 C140.170124,46.7785714 139.978216,47.5448052 139.978216,48.4642857 C139.978216,49.3837662 140.170124,50.15 140.51556,50.7246753 C140.937759,51.4142857 141.590249,51.7590909 142.434647,51.7590909 C143.279046,51.7590909 143.931535,51.4142857 144.353734,50.7246753 C144.69917,50.15 144.891079,49.4220779 144.891079,48.5025974" id="Shape" fill="#231F20" fill-rule="nonzero"></path><path d="M155.330913,53.4831169 C154.179461,53.8662338 153.258299,54.0577922 152.529046,54.0577922 C150.379668,54.0577922 149.304979,53.1 149.304979,51.1461039 L149.304979,45.361039 L148.115145,45.2844156 L148.115145,43.2922078 L149.304979,43.2155844 L149.304979,40.3038961 L151.838174,40.3038961 L151.838174,43.1772727 L154.793568,43.1772727 L154.793568,45.361039 L151.838174,45.361039 L151.838174,50.9545455 C151.838174,51.5675325 152.145228,51.874026 152.797718,51.874026 C153.219917,51.874026 153.872407,51.7207792 154.678423,51.4525974 L155.330913,53.4831169 Z" id="Shape" fill="#231F20" fill-rule="nonzero"></path><path d="M164.580913,53.1383117 C162.776971,53.6746753 161.280083,53.9428571 160.090249,53.9428571 C158.862033,53.9428571 157.825726,53.712987 156.981328,53.2532468 C155.906639,52.6785714 155.369295,51.8357143 155.369295,50.7246753 C155.369295,49.4987013 155.945021,48.6175325 157.058091,48.0811688 C157.518672,47.8512987 158.554979,47.5448052 160.205394,47.2 C161.318465,46.9318182 161.894191,46.587013 161.894191,46.1272727 C161.894191,45.475974 161.318465,45.1694805 160.128631,45.1694805 C159.169087,45.1694805 158.171162,45.361039 157.211618,45.7824675 L156.328838,43.8668831 C157.633817,43.2538961 159.01556,42.9474026 160.474066,42.9474026 C161.6639,42.9474026 162.623444,43.2155844 163.275934,43.7519481 C164.005187,44.3266234 164.389004,45.2077922 164.389004,46.3571429 L164.389004,51.7590909 C164.427386,52.0655844 164.465768,52.5253247 164.580913,53.1383117 M161.932573,51.5675325 C161.894191,51.375974 161.894191,51.261039 161.894191,51.1844156 L161.894191,48.6175325 C161.6639,48.8090909 161.241701,49.0006494 160.55083,49.1538961 C159.706432,49.3454545 159.169087,49.4987013 158.938797,49.6136364 C158.401452,49.8435065 158.171162,50.1883117 158.171162,50.6097403 C158.171162,51.4525974 158.823651,51.874026 160.128631,51.874026 C160.704357,51.8357143 161.318465,51.7590909 161.932573,51.5675325 M162.239627,39.8058442 C162.239627,40.1123377 162.0861,40.3422078 161.855809,40.5337662 L159.284232,42.2577922 L158.363071,41.2233766 L160.397303,38.962987 C160.589212,38.7331169 160.819502,38.6564935 161.088174,38.6564935 C161.395228,38.6564935 161.6639,38.7714286 161.894191,39.0012987 C162.124481,39.2694805 162.239627,39.4993506 162.239627,39.8058442" id="Shape" fill="#231F20" fill-rule="nonzero"></path><path d="M32.7780083,14.9798701 C31.7417012,18.4279221 26.8672199,21.0331169 20.9948133,21.0331169 C14.3547718,21.0331169 9.01970954,17.7383117 9.01970954,13.638961 C9.01970954,9.53961039 14.3931535,6.24480519 20.9948133,6.24480519 C26.8672199,6.24480519 31.7417012,8.85 32.7780083,12.2980519 C33.2002075,9.76948052 34.8122407,7.47077922 37.2302905,5.59350649 C33.4304979,2.64350649 27.5580913,0.766233766 20.9948133,0.766233766 C9.48029046,0.766233766 0.191908714,6.51298701 0.191908714,13.6006494 C0.191908714,20.6883117 9.5186722,26.4350649 20.9948133,26.4350649 C27.5580913,26.4350649 33.4304979,24.5577922 37.2302905,21.6077922 C34.7738589,19.8071429 33.2002075,17.5084416 32.7780083,14.9798701" id="Shape" fill="#C3002F"></path><path d="M32.7780083,42.525974 C31.7417012,45.974026 26.8672199,48.5792208 20.9948133,48.5792208 C14.3547718,48.5792208 9.01970954,45.2844156 9.01970954,41.1850649 C9.01970954,37.0857143 14.3931535,33.7909091 20.9948133,33.7909091 C26.8672199,33.7909091 31.7417012,36.3961039 32.7780083,39.8441558 C33.2002075,37.3155844 34.8122407,35.0168831 37.2302905,33.1779221 C33.4304979,30.2279221 27.5580913,28.3506494 20.9948133,28.3506494 C9.48029046,28.3506494 0.191908714,34.0974026 0.191908714,41.1850649 C0.191908714,48.2727273 9.5186722,54.0194805 20.9948133,54.0194805 C27.5580913,54.0194805 33.4304979,52.1422078 37.2302905,49.1922078 C34.7738589,47.3149351 33.2002075,45.0162338 32.7780083,42.525974" id="Shape" fill="#C3002F"></path><path d="M42.4885892,14.9798701 C43.5248963,18.4279221 48.3993776,21.0331169 54.2717842,21.0331169 C60.873444,21.0331169 66.246888,17.7383117 66.246888,13.638961 C66.246888,9.53961039 60.873444,6.24480519 54.2717842,6.24480519 C48.3993776,6.24480519 43.5248963,8.85 42.4885892,12.2980519 C42.06639,9.76948052 40.4543568,7.47077922 38.0363071,5.59350649 C41.8360996,2.64350649 47.7085062,0.766233766 54.2717842,0.766233766 C65.7479253,0.766233766 75.0746888,6.51298701 75.0746888,13.6006494 C75.0746888,20.6883117 65.7479253,26.4350649 54.2717842,26.4350649 C47.7085062,26.4350649 41.8360996,24.5577922 38.0363071,21.6077922 C40.4543568,19.8071429 42.06639,17.5084416 42.4885892,14.9798701" id="Shape" fill="#C3002F"></path><path d="M42.4885892,42.525974 C43.5248963,45.974026 48.3993776,48.5792208 54.2717842,48.5792208 C60.873444,48.5792208 66.246888,45.2844156 66.246888,41.1850649 C66.246888,37.0857143 60.873444,33.7909091 54.2717842,33.7909091 C48.3993776,33.7909091 43.5248963,36.3961039 42.4885892,39.8441558 C42.06639,37.3155844 40.4543568,35.0168831 38.0363071,33.1779221 C41.8360996,30.2279221 47.7085062,28.3506494 54.2717842,28.3506494 C65.7479253,28.3506494 75.0746888,34.0974026 75.0746888,41.1850649 C75.0746888,48.2727273 65.7479253,54.0194805 54.2717842,54.0194805 C47.7085062,54.0194805 41.8360996,52.1422078 38.0363071,49.1922078 C40.4543568,47.3149351 42.06639,45.0162338 42.4885892,42.525974" id="Shape" fill="#C3002F"></path></g></g></g></svg>